# xmcd
#
# Track frame offsets: 
#        150
#        13766
#        27611
#        42231
#        55229
#        75045
#        100067
#        117512
#        133368
#        145372
#        161856
#        180014
#
# Disc length: 2687 seconds
#
# Revision: 1
# Processed by: cddbd v1.5.2PL0 Copyright (c) Steve Scherf et al.
# Submitted via: ExactAudioCopy v1.0b3
#
DISCID=9d0a7d0c
DTITLE=Walter T. Higgs - Just A Few Miles To Go
DYEAR=2001
DGENRE=Blues
TTITLE0=Just a few Miles to go
TTITLE1=I have a Dream
TTITLE2=Too many Women knockin'
TTITLE3=Shake Shuffle Shimmy
TTITLE4=Dont be afraid
TTITLE5=Is that a Teardrop ¿
TTITLE6=Just how bad I feel
TTITLE7=See ya real soon
TTITLE8=Chipped off
TTITLE9=Blues and the Gospel
TTITLE10=Kiss your Shoes
TTITLE11=Keep it going on
EXTD=YEAR: 2001
EXTT0=
EXTT1=
EXTT2=
EXTT3=
EXTT4=
EXTT5=
EXTT6=
EXTT7=
EXTT8=
EXTT9=
EXTT10=
EXTT11=
PLAYORDER=
